<svg xmlns="http://www.w3.org/2000/svg" xmlns:xlink="http://www.w3.org/1999/xlink" width="186" height="41.92" viewBox="0 0 186 41.92"><defs><path id="tmn8b" d="M140 88h16l-6.5-7z"/><path id="tmn8c" d="M140 89l14.28 1 1.72-1z"/><path id="tmn8a" d="M149.1 60.08h38.1v38.9h-38.1z"/><path id="tmn8e" d="M168.2 60.08c-10.55 0-19.1 8.66-19.1 19.4v.05h2.25v-.05c0-9.45 7.56-17.1 16.84-17.1 9.28 0 16.84 7.77 16.84 17.22s-7.51 17.23-16.8 17.23h-.26v2.15c10.23 0 19.23-8.7 19.23-19.45 0-10.74-8.44-19.45-19-19.45"/><path id="tmn8f" d="M152.12 77.66a2.79 2.79 0 0 1-.12 3.9 2.67 2.67 0 0 1-3.83-.13 2.79 2.79 0 0 1 .12-3.9 2.67 2.67 0 0 1 3.83.13"/><path id="tmn8g" d="M150.15 82.69h-.1a3.04 3.04 0 0 1-2.15-.99 3.18 3.18 0 0 1 .13-4.44 3.04 3.04 0 0 1 4.36.14 3.18 3.18 0 0 1-.13 4.44c-.58.55-1.33.85-2.11.85m-.01-5.51c-.6 0-1.16.23-1.6.64a2.4 2.4 0 0 0-.1 3.35 2.29 2.29 0 0 0 3.29.1c.93-.89.98-2.4.1-3.34a2.29 2.29 0 0 0-1.7-.75"/><path id="tmn8h" d="M161.9 74.47a5.1 5.1 0 0 0-5.07 5.15 5.1 5.1 0 0 0 5.06 5.15 5.1 5.1 0 0 0 5.06-5.15 5.1 5.1 0 0 0-5.06-5.15m2.13 7.32a2.97 2.97 0 0 1-4.26 0 3.1 3.1 0 0 1 0-4.34 2.97 2.97 0 0 1 4.26 0 3.1 3.1 0 0 1 0 4.34"/><path id="tmn8i" d="M163.93 79.06c-.75 0-1.37-.63-1.37-1.4 0-.77.62-1.4 1.37-1.4.76 0 1.38.63 1.38 1.4 0 .77-.62 1.4-1.38 1.4z"/><clipPath id="tmn8d"><use xlink:href="#tmn8a"/></clipPath></defs><g><g transform="translate(-140 -60.08)"><g fill="#fff" font-family="AvenirNext-Bold" font-size="30"><text dominant-baseline="text-before-edge" font-family="Helvetica, Arial, sans-serif" transform="translate(187 61)"><tspan letter-spacing=".56">Homerr</tspan></text></g></g><g transform="translate(-140 -60.08)"><g><use fill="#fff" xlink:href="#tmn8b"/></g><g><use fill="#fff" xlink:href="#tmn8c"/></g><g><g><g/><g clip-path="url(#tmn8d)"><use fill="#fff" xlink:href="#tmn8e"/></g></g><g><use fill="#fff" xlink:href="#tmn8f"/></g><g><use fill="#fff" xlink:href="#tmn8g"/></g><g><use fill="#fff" xlink:href="#tmn8h"/></g><g><use fill="#fff" xlink:href="#tmn8i"/></g></g></g></g></svg>