<?xml version="1.0" encoding="UTF-8"?>
<svg width="49px" height="40px" viewBox="0 0 49 40" version="1.1" xmlns="http://www.w3.org/2000/svg" xmlns:xlink="http://www.w3.org/1999/xlink">
    <!-- Generator: Sketch 46.2 (44496) - http://www.bohemiancoding.com/sketch -->
    <title>1561a7a8f10e32f66f2d43b78d79d599 copy</title>
    <desc>Created with Sketch.</desc>
    <defs></defs>
    <g id="Page-1" stroke="none" stroke-width="1" fill="none" fill-rule="evenodd">
        <g id="Hoe-werkt-Homerr" transform="translate(-270.000000, -4730.000000)" fill-rule="nonzero" fill="#000000">
            <g id="1561a7a8f10e32f66f2d43b78d79d599-copy" transform="translate(270.000000, 4730.000000)">
                <path d="M49,4.7534195 C47.17,5.52139541 45.335,6.13376835 43.2,6.28435186 C45.335,5.05960597 46.865,3.06688418 47.625,0.767975907 C45.64,1.9927218 43.505,2.7606977 41.215,3.21746769 C39.385,1.22474589 36.79,0 34.04,0 C28.545,0 23.965,4.44221358 23.965,10.1141925 C23.965,10.8821684 24.12,11.6451249 24.27,12.4131008 C15.875,11.9563308 8.55,7.97088719 3.51,1.84213829 C2.595,3.3780901 2.135,5.05960597 2.135,6.90174426 C2.135,10.4253984 3.965,13.4922826 6.56,15.3294014 C4.88,15.3294014 3.355,14.867612 1.98,14.1046555 L1.98,14.2602585 C1.98,19.1642615 5.49,23.1497051 10.07,24.0682645 C9.155,24.2238675 8.39,24.374451 7.475,24.374451 C6.865,24.374451 6.255,24.374451 5.645,24.218848 C6.865,28.2042916 10.68,31.1155728 14.955,31.2661564 C11.595,34.0268541 7.17,35.5577864 2.44,35.5577864 C1.675,35.5577864 0.76,35.5577864 0,35.4021835 C4.425,38.3134647 9.77,40 15.415,40 C33.885,40 43.96,24.675618 43.96,11.3439578 C43.96,10.8821684 43.96,10.4253984 43.96,10.1192119 C45.945,8.43267662 47.625,6.7461413 49,4.7534195 L49,4.7534195 Z" id="Shape"></path>
            </g>
        </g>
    </g>
</svg>